# xmcd CD database file
#
# Track frame offsets:
#	150
#	28967
#	51362
#	76403
#	105395
#	134646
#	158763
#	187373
#	223705
#	271826
#	287271
#
# Disc length: 4115 seconds
#
# Revision: 0
# Processed by: cddbd v1.5.2PL0 Copyright (c) Steve Scherf et al.
# Submitted via: CDex 1.70beta2
#
DISCID=a210110b
DTITLE=The Bassface Swing Trio - Straight Live
DYEAR=2005
DGENRE=Jazz
TTITLE0=I've never been in love before
TTITLE1=Everything I love
TTITLE2=Finally
TTITLE3=It aint't necessarily so
TTITLE4=F.S.R.
TTITLE5=That's all
TTITLE6=Thow could you do a thing like this to me
TTITLE7=Meditation
TTITLE8=On green dolphin street
TTITLE9=Gee, baby ain't I good to you
TTITLE10=Lined with a groove
EXTD=YEAR: 2005
EXTT0=
EXTT1=
EXTT2=
EXTT3=
EXTT4=
EXTT5=
EXTT6=
EXTT7=
EXTT8=
EXTT9=
EXTT10=
PLAYORDER=
